<svg xmlns="http://www.w3.org/2000/svg" viewBox="0 0 64 64">
  <defs>
    <linearGradient id="gradient" x1="0%" y1="0%" x2="100%" y2="100%">
      <stop offset="0%" style="stop-color:#6366f1" />
      <stop offset="50%" style="stop-color:#a855f7" />
      <stop offset="100%" style="stop-color:#ec4899" />
    </linearGradient>
  </defs>
  
  <circle cx="32" cy="32" r="30" fill="url(#gradient)" />
  
  <g fill="white">
    <ellipse cx="22" cy="42" rx="7" ry="5" transform="rotate(-20 22 42)" />
    <ellipse cx="42" cy="38" rx="7" ry="5" transform="rotate(-20 42 38)" />
    <rect x="27" y="16" width="3" height="28" rx="1" />
    <rect x="47" y="12" width="3" height="28" rx="1" />
    <path d="M28 16 Q37 10 48 12 L48 18 Q37 16 28 22 Z" />
    <path d="M28 22 Q37 16 48 18 L48 24 Q37 22 28 28 Z" />
  </g>
  
  <g fill="white" font-family="Arial, sans-serif" font-weight="bold" font-size="10">
    <text x="8" y="22">1</text>
    <line x1="6" y1="24" x2="16" y2="24" stroke="white" stroke-width="1.5" />
    <text x="8" y="33">4</text>
  </g>
</svg>
