<svg xmlns="http://www.w3.org/2000/svg" viewBox="0 0 1200 630">
  <defs>
    <linearGradient id="bg-gradient" x1="0%" y1="0%" x2="100%" y2="100%">
      <stop offset="0%" style="stop-color:#6366f1" />
      <stop offset="50%" style="stop-color:#a855f7" />
      <stop offset="100%" style="stop-color:#ec4899" />
    </linearGradient>
  </defs>
  
  <rect width="1200" height="630" fill="url(#bg-gradient)" />
  
  <circle cx="100" cy="100" r="80" fill="white" opacity="0.1" />
  <circle cx="1100" cy="530" r="120" fill="white" opacity="0.1" />
  <circle cx="1000" cy="100" r="60" fill="white" opacity="0.1" />
  
  <text x="600" y="180" text-anchor="middle" fill="white" font-family="Arial, sans-serif" font-size="60" font-weight="bold">
    Rhythm Fraction Play
  </text>
  
  <text x="600" y="250" text-anchor="middle" fill="white" opacity="0.9" font-family="Arial, sans-serif" font-size="36">
    Learn fractions with music!
  </text>
  
  <g transform="translate(200, 320)">
    <rect x="0" y="0" width="150" height="80" rx="15" fill="#3b82f6" />
    <text x="75" y="50" text-anchor="middle" fill="white" font-family="Arial, sans-serif" font-size="32" font-weight="bold">1/4</text>
    
    <rect x="160" y="0" width="150" height="80" rx="15" fill="#3b82f6" />
    <text x="235" y="50" text-anchor="middle" fill="white" font-family="Arial, sans-serif" font-size="32" font-weight="bold">1/4</text>
    
    <rect x="320" y="0" width="300" height="80" rx="15" fill="#22c55e" />
    <text x="470" y="50" text-anchor="middle" fill="white" font-family="Arial, sans-serif" font-size="32" font-weight="bold">2/4</text>
    
    <text x="680" y="55" fill="white" font-family="Arial, sans-serif" font-size="40" font-weight="bold">= 1 measure!</text>
  </g>
  
  <g transform="translate(200, 440)">
    <rect x="0" y="0" width="75" height="60" rx="10" fill="#f97316" />
    <text x="37" y="40" text-anchor="middle" fill="white" font-family="Arial, sans-serif" font-size="20" font-weight="bold">1/8</text>
    
    <rect x="85" y="0" width="75" height="60" rx="10" fill="#f97316" />
    <text x="122" y="40" text-anchor="middle" fill="white" font-family="Arial, sans-serif" font-size="20" font-weight="bold">1/8</text>
    
    <rect x="170" y="0" width="150" height="60" rx="10" fill="#3b82f6" />
    <text x="245" y="40" text-anchor="middle" fill="white" font-family="Arial, sans-serif" font-size="20" font-weight="bold">1/4</text>
    
    <rect x="330" y="0" width="300" height="60" rx="10" fill="#22c55e" />
    <text x="480" y="40" text-anchor="middle" fill="white" font-family="Arial, sans-serif" font-size="20" font-weight="bold">2/4</text>
    
    <text x="680" y="45" fill="white" font-family="Arial, sans-serif" font-size="30" font-weight="bold">= 1</text>
  </g>
  
  <text x="150" y="550" fill="white" opacity="0.6" font-family="Arial" font-size="80">&#9833;</text>
  <text x="280" y="520" fill="white" opacity="0.4" font-family="Arial" font-size="60">&#9834;</text>
  <text x="900" y="550" fill="white" opacity="0.6" font-family="Arial" font-size="80">&#9836;</text>
  <text x="1030" y="520" fill="white" opacity="0.4" font-family="Arial" font-size="60">&#9835;</text>
  
  <text x="600" y="590" text-anchor="middle" fill="white" opacity="0.7" font-family="Arial, sans-serif" font-size="22">
    Math + Music = Fun Learning!
  </text>
</svg>
